<svg version="1.2" xmlns="http://www.w3.org/2000/svg" viewBox="0 0 29 30" width="29" height="30">
	<path id="-e-icon-production" class="s0" d="m11 28.3h-11v-21.2l5.6-5.6h5.4v2.4h-4.4l-4.2 4.2v17.8h8.6zm-2.5-18.3h-6.1v-2.5h3.7v-3.6h2.4zm8.3 19.5h-3.4v-2.4h1.5l0.7-2.7 0.6-0.2q1-0.3 1.8-0.8l0.7-0.3 2.3 1.4 2.1-2.1-1.4-2.3 0.3-0.6q0.5-0.9 0.8-1.8l0.2-0.7 2.6-0.7v-2.9l-2.6-0.7-0.2-0.7q-0.3-0.9-0.8-1.8l-0.3-0.6 1.4-2.3-2.1-2.1-2.3 1.4-0.7-0.4q-0.8-0.4-1.8-0.7l-0.6-0.2-0.7-2.7h-1.5v-2.4h3.4l0.8 3.2q0.5 0.2 1 0.4l2.8-1.7 4.8 4.8-1.7 2.8q0.2 0.5 0.4 1l3.2 0.8v6.7l-3.2 0.8q-0.2 0.5-0.4 1l1.7 2.8-4.8 4.8-2.8-1.7q-0.5 0.2-1 0.4zm-3.4-8.5v-2.5c2 0 3.7-1.6 3.7-3.6 0-2.1-1.7-3.7-3.7-3.7v-2.4c3.4 0 6.1 2.7 6.1 6.1 0 3.3-2.7 6.1-6.1 6.1zm-1.2 8.5h-2.4v-29.3h2.4z"/>
</svg>