<svg version="1.2" xmlns="http://www.w3.org/2000/svg" viewBox="0 0 31 30" width="31" height="30">
	<path id="-e-icon-construction" class="s0" d="m26 7.4l-1.5-1.5-18.2 18.4h-1.2v-0.7l19.6-20 3 3.1-4.7 4.8 1.5 1.5 6.2-6.3-6-6.1-21.7 22.1v2.1l-2.1 2.1 1.5 1.5 1.9-1.9h2.9zm-16 6.6l-7-7.1 3.6-3.6 6.9 7.1 1.5-1.5-8.4-8.6-6.5 6.6 8.5 8.6zm9 1.5l7.2 7.3-3.5 3.6-7-7.1-1.5 1.5 8.5 8.6 6.5-6.6-8.8-8.8zm1.3 4.3l-1.5-1.5-1.3 1.2 1.5 1.5zm1.5 1.8l-1.2 1.3 1.5 1.5 1.2-1.3zm-16.7-14.4l1.5 1.5 1.2-1.3-1.5-1.5zm4.5 4.8l1.3-1.2-1.5-1.5-1.3 1.2z"/>
</svg>