<svg version="1.2" xmlns="http://www.w3.org/2000/svg" viewBox="0 0 30 31" width="30" height="31">
	<path id="-e-icon-time" class="s0" d="m18.3 19.2h-2.4v-8.4h2.4zm0-12.2h-2.4v-5.9h2.4zm2.5-3.6h-7.4v-2.5h7.4zm-1.9 15.3c0 1-0.9 1.8-1.9 1.8-1 0-1.8-0.8-1.8-1.8 0-1 0.8-1.8 1.8-1.8 1 0 1.9 0.8 1.9 1.8zm5.2-8.3l-1.8-1.7 3.7-3.7 1.7 1.8zm-13.1 8.8h-10.9v-2.4h10.9zm2.5 6h-11v-2.4h11zm-8.6-8.5q-0.1 0.6-0.1 1.3 0 1.2 0.3 2.4h2.5q-0.3-1.2-0.3-2.4 0-0.7 0.1-1.3zm12.2-10.9c-5.5 0-10.1 3.6-11.7 8.5h2.6c1.5-3.6 5-6.1 9.1-6.1 5.4 0 9.8 4.4 9.8 9.8 0 5.4-4.4 9.8-9.8 9.8-3.7 0-6.9-2-8.6-5h-2.7c1.9 4.3 6.2 7.4 11.3 7.4 6.7 0 12.2-5.5 12.2-12.2 0-6.7-5.5-12.2-12.2-12.2zm-13.4 7.3h-3.7v-2.5h3.7z"/>
</svg>