<svg version="1.2" xmlns="http://www.w3.org/2000/svg" viewBox="0 0 19 19" width="19" height="19">
	<path id="-e-icon-ig" fill-rule="evenodd" class="s0" d="m14.4 19h-10.2c-2.1 0-3.9-1.7-3.9-3.8v-10.7c0-2.1 1.8-3.8 3.9-3.8h10.2c2.2 0 3.9 1.7 3.9 3.8v10.7c0 2.1-1.7 3.8-3.9 3.8zm-10.2-16.8c-1.3 0-2.3 1-2.3 2.3v10.7c0 1.2 1 2.2 2.3 2.2h10.2c1.3 0 2.3-1 2.3-2.2v-10.7c0-1.3-1-2.3-2.3-2.3zm5.2 12.4c-2.6 0-4.7-2.1-4.7-4.8 0-2.6 2.1-4.7 4.7-4.7 2.6 0 4.7 2.1 4.7 4.7 0 2.7-2.1 4.8-4.7 4.8zm0-8c-1.8 0-3.2 1.5-3.2 3.2 0 1.8 1.4 3.2 3.2 3.2 1.7 0 3.1-1.4 3.1-3.2 0-1.7-1.4-3.2-3.1-3.2zm6.1-1.8c0 0.6-0.5 1.1-1.1 1.1-0.6 0-1.1-0.5-1.1-1.1 0-0.6 0.5-1.1 1.1-1.1 0.6 0 1.1 0.5 1.1 1.1z"/>
</svg>